<mxfile host="Electron" agent="Mozilla/5.0 (X11; Linux x86_64) AppleWebKit/537.36 (KHTML, like Gecko) draw.io/26.0.4 Chrome/128.0.6613.186 Electron/32.2.5 Safari/537.36" version="26.0.4">
  <diagram name="Page-1" id="xvaVydSIE9czKSJdxyU3">
    <mxGraphModel dx="928" dy="998" grid="1" gridSize="10" guides="1" tooltips="1" connect="1" arrows="1" fold="1" page="1" pageScale="1" pageWidth="850" pageHeight="1100" math="0" shadow="0">
      <root>
        <mxCell id="0" />
        <mxCell id="1" parent="0" />
        <mxCell id="fxlXp275Ixo6tMJQErPb-8" value="&amp;nbsp;S3 Put&amp;nbsp;" style="edgeStyle=orthogonalEdgeStyle;rounded=0;orthogonalLoop=1;jettySize=auto;html=1;labelPosition=left;verticalLabelPosition=middle;align=right;verticalAlign=middle;" edge="1" parent="1" target="fxlXp275Ixo6tMJQErPb-1">
          <mxGeometry relative="1" as="geometry">
            <mxPoint x="20" y="429" as="sourcePoint" />
          </mxGeometry>
        </mxCell>
        <mxCell id="fxlXp275Ixo6tMJQErPb-9" value="&amp;nbsp;Import CSV&amp;nbsp;" style="edgeStyle=orthogonalEdgeStyle;rounded=0;orthogonalLoop=1;jettySize=auto;html=1;" edge="1" parent="1" source="fxlXp275Ixo6tMJQErPb-1" target="fxlXp275Ixo6tMJQErPb-3">
          <mxGeometry relative="1" as="geometry" />
        </mxCell>
        <mxCell id="fxlXp275Ixo6tMJQErPb-1" value="Amazon S3&lt;div&gt;&lt;b&gt;Input Bucket&lt;/b&gt;&lt;/div&gt;" style="sketch=0;points=[[0,0,0],[0.25,0,0],[0.5,0,0],[0.75,0,0],[1,0,0],[0,1,0],[0.25,1,0],[0.5,1,0],[0.75,1,0],[1,1,0],[0,0.25,0],[0,0.5,0],[0,0.75,0],[1,0.25,0],[1,0.5,0],[1,0.75,0]];outlineConnect=0;fontColor=#232F3E;fillColor=#7AA116;strokeColor=#ffffff;dashed=0;verticalLabelPosition=top;verticalAlign=bottom;align=center;html=1;fontSize=12;fontStyle=0;aspect=fixed;shape=mxgraph.aws4.resourceIcon;resIcon=mxgraph.aws4.s3;labelPosition=center;" vertex="1" parent="1">
          <mxGeometry x="80" y="390" width="78" height="78" as="geometry" />
        </mxCell>
        <mxCell id="fxlXp275Ixo6tMJQErPb-14" value="&amp;nbsp;Parquet&amp;nbsp;" style="edgeStyle=orthogonalEdgeStyle;rounded=0;orthogonalLoop=1;jettySize=auto;html=1;" edge="1" parent="1" source="fxlXp275Ixo6tMJQErPb-3" target="fxlXp275Ixo6tMJQErPb-10">
          <mxGeometry relative="1" as="geometry" />
        </mxCell>
        <mxCell id="fxlXp275Ixo6tMJQErPb-3" value="AWS Glue ETL" style="sketch=0;points=[[0,0,0],[0.25,0,0],[0.5,0,0],[0.75,0,0],[1,0,0],[0,1,0],[0.25,1,0],[0.5,1,0],[0.75,1,0],[1,1,0],[0,0.25,0],[0,0.5,0],[0,0.75,0],[1,0.25,0],[1,0.5,0],[1,0.75,0]];outlineConnect=0;fontColor=#232F3E;fillColor=#8C4FFF;strokeColor=#ffffff;dashed=0;verticalLabelPosition=top;verticalAlign=bottom;align=center;html=1;fontSize=12;fontStyle=0;aspect=fixed;shape=mxgraph.aws4.resourceIcon;resIcon=mxgraph.aws4.glue;labelPosition=center;" vertex="1" parent="1">
          <mxGeometry x="326" y="390" width="78" height="78" as="geometry" />
        </mxCell>
        <mxCell id="fxlXp275Ixo6tMJQErPb-16" value="&amp;nbsp;Analyze&amp;nbsp;" style="edgeStyle=orthogonalEdgeStyle;rounded=0;orthogonalLoop=1;jettySize=auto;html=1;" edge="1" parent="1" source="fxlXp275Ixo6tMJQErPb-10" target="fxlXp275Ixo6tMJQErPb-15">
          <mxGeometry relative="1" as="geometry" />
        </mxCell>
        <mxCell id="fxlXp275Ixo6tMJQErPb-10" value="Amazon S3&lt;div&gt;&lt;b&gt;Output Bucket&lt;/b&gt;&lt;/div&gt;" style="sketch=0;points=[[0,0,0],[0.25,0,0],[0.5,0,0],[0.75,0,0],[1,0,0],[0,1,0],[0.25,1,0],[0.5,1,0],[0.75,1,0],[1,1,0],[0,0.25,0],[0,0.5,0],[0,0.75,0],[1,0.25,0],[1,0.5,0],[1,0.75,0]];outlineConnect=0;fontColor=#232F3E;fillColor=#7AA116;strokeColor=#ffffff;dashed=0;verticalLabelPosition=top;verticalAlign=bottom;align=center;html=1;fontSize=12;fontStyle=0;aspect=fixed;shape=mxgraph.aws4.resourceIcon;resIcon=mxgraph.aws4.s3;labelPosition=center;" vertex="1" parent="1">
          <mxGeometry x="530" y="390" width="78" height="78" as="geometry" />
        </mxCell>
        <mxCell id="fxlXp275Ixo6tMJQErPb-13" style="edgeStyle=orthogonalEdgeStyle;rounded=0;orthogonalLoop=1;jettySize=auto;html=1;" edge="1" parent="1" source="fxlXp275Ixo6tMJQErPb-11" target="fxlXp275Ixo6tMJQErPb-3">
          <mxGeometry relative="1" as="geometry" />
        </mxCell>
        <mxCell id="fxlXp275Ixo6tMJQErPb-11" value="Lambda Function&lt;div&gt;(EventBridge works as an alternative)&lt;/div&gt;" style="sketch=0;points=[[0,0,0],[0.25,0,0],[0.5,0,0],[0.75,0,0],[1,0,0],[0,1,0],[0.25,1,0],[0.5,1,0],[0.75,1,0],[1,1,0],[0,0.25,0],[0,0.5,0],[0,0.75,0],[1,0.25,0],[1,0.5,0],[1,0.75,0]];outlineConnect=0;fontColor=#232F3E;fillColor=#ED7100;strokeColor=#ffffff;dashed=0;verticalLabelPosition=bottom;verticalAlign=top;align=center;html=1;fontSize=12;fontStyle=0;aspect=fixed;shape=mxgraph.aws4.resourceIcon;resIcon=mxgraph.aws4.lambda;" vertex="1" parent="1">
          <mxGeometry x="326" y="590" width="78" height="78" as="geometry" />
        </mxCell>
        <mxCell id="fxlXp275Ixo6tMJQErPb-12" value="&amp;nbsp;Event notifications On S3 PUT&amp;nbsp;" style="edgeStyle=orthogonalEdgeStyle;rounded=0;orthogonalLoop=1;jettySize=auto;html=1;entryX=0;entryY=0.5;entryDx=0;entryDy=0;entryPerimeter=0;" edge="1" parent="1" source="fxlXp275Ixo6tMJQErPb-1" target="fxlXp275Ixo6tMJQErPb-11">
          <mxGeometry x="0.3878" relative="1" as="geometry">
            <Array as="points">
              <mxPoint x="119" y="629" />
            </Array>
            <mxPoint as="offset" />
          </mxGeometry>
        </mxCell>
        <mxCell id="fxlXp275Ixo6tMJQErPb-15" value="Amazon Athena" style="sketch=0;points=[[0,0,0],[0.25,0,0],[0.5,0,0],[0.75,0,0],[1,0,0],[0,1,0],[0.25,1,0],[0.5,1,0],[0.75,1,0],[1,1,0],[0,0.25,0],[0,0.5,0],[0,0.75,0],[1,0.25,0],[1,0.5,0],[1,0.75,0]];outlineConnect=0;fontColor=#232F3E;fillColor=#8C4FFF;strokeColor=#ffffff;dashed=0;verticalLabelPosition=top;verticalAlign=bottom;align=center;html=1;fontSize=12;fontStyle=0;aspect=fixed;shape=mxgraph.aws4.resourceIcon;resIcon=mxgraph.aws4.athena;labelPosition=center;" vertex="1" parent="1">
          <mxGeometry x="730" y="390" width="78" height="78" as="geometry" />
        </mxCell>
      </root>
    </mxGraphModel>
  </diagram>
</mxfile>
